# xmcd
#
# Track frame offsets:
#	150
#	12012
#	24184
#	36869
#	49140
#	59714
#	69727
#	83656
#	96554
#	110923
#	123023
#	135447
#	147164
#	161135
#	171939
#	185401
#	199553
#	210876
#	224515
#	237267
#	246869
#	258930
#	271843
#	286359
#	297439
#	310621
#	323197
#	336835
#	348899
#
# Disc length: 4797 seconds
#
# Revision: 1
# Processed by: cddbd v1.5.2PL0 Copyright (c) Steve Scherf et al.
# Submitted via: audiograbber 1.83.01
#
DISCID=b012bb1d
DTITLE=Various Artist - Country and Western Hit Parade 1951
DYEAR=2009
DGENRE=Country
TTITLE0=Tennessee Ernie - The Shot Gun Boogie
TTITLE1=Elton Britt and the Skytoppers - Rotation Blues
TTITLE2=Hank Snow - The Golden Rocket
TTITLE3=Hank Williams - Cold Cold Heart
TTITLE4=Johnnie and Jack and their Tennessee Mountain Boys - Poison Love
TTITLE5=Eddy Arnold - I Wanna Play House With You
TTITLE6=Lefty Frizzell - Mom And Dad's Waltz
TTITLE7=Carl Smith - Let's Live A Little
TTITLE8=The Pinetoppers - Mockin' Bird Hill
TTITLE9=Johnny Bond - Sick, Sober And Sorry
TTITLE10=Moon Mullican - I Was Sorta Wonderin'
TTITLE11=Big Jeff and the Radio Playboys - Step It Up And Go
TTITLE12=Lefty Frizzell - Always Late (With Your Kisses)
TTITLE13=The Carlisles - Too Old To Cut The Mustard
TTITLE14=Eddie Hill - The Hot Guitar
TTITLE15=Curley Williams and His Georgia Peach Pickers - Half As Much
TTITLE16=Bill Haley and the Saddlemen - Rocket '88'
TTITLE17=Pee Wee King and his Golden West Cowboys - Slow Poke
TTITLE18=Hank Snow (The Singing Ranger and his Rainbow Ranch Boys) - The Rhumba
TTITLE18=Boogie
TTITLE19=The Stewart Family - Just Out Of Reach (Of My Two Open Arms)
TTITLE20=Zeb Turner with String  Band - Chew Tobacco Rag
TTITLE21=Carl Smith - Let Old Mother Nature Have Her Way
TTITLE22=Red Foley with the Sunshine Boys Quartet - (There'll Be) Peace In The 
TTITLE22=Valley (For Me)
TTITLE23=Jimmy Murphy - Electricity
TTITLE24=Hank Williams - Hey Good Lookin'
TTITLE25=Bill Monroe and His Blue Grass Boys - Uncle Pen
TTITLE26=Mac Wiseman - 'Tis Sweet To Be Remembered
TTITLE27=Jess Willard - Honky Tonk Hardwood Floor
TTITLE28=Del Wood - Down Yonder
EXTD=
EXTT0=
EXTT1=
EXTT2=
EXTT3=
EXTT4=
EXTT5=
EXTT6=
EXTT7=
EXTT8=
EXTT9=
EXTT10=
EXTT11=
EXTT12=
EXTT13=
EXTT14=
EXTT15=
EXTT16=
EXTT17=
EXTT18=
EXTT19=
EXTT20=
EXTT21=
EXTT22=
EXTT23=
EXTT24=
EXTT25=
EXTT26=
EXTT27=
EXTT28=
PLAYORDER=
